P1
# Created by GIMP version 2.10.36 PNM plug-in
7 10
1111111111111111111110011111001111111111111111100111111101111110111111